<svg xmlns="http://www.w3.org/2000/svg" viewBox="0 0 100 100"><defs><style>.cls-1{fill:#4aa0eb;}.cls-2{fill:none;stroke:#fff;stroke-linecap:round;stroke-miterlimit:10;stroke-width:6px;}</style></defs><title>brewer-verified</title><g id="Shape"><path class="cls-1" d="M91.56,55.7c-4-4-4-7.36,0-11.39h-.05a8.28,8.28,0,0,0-4.58-14.1l0,0c-5.63-.89-7.58-3.59-6.7-9.21l0,0a8.27,8.27,0,0,0-12-8.71l0,0C63.18,14.83,60,13.79,57.43,8.72l0,0a8.27,8.27,0,0,0-14.82,0l0,0c-2.59,5.07-5.76,6.11-10.83,3.52l0,0a8.27,8.27,0,0,0-12,8.71l0,0c.89,5.63-1.07,8.32-6.7,9.21l0,0a8.28,8.28,0,0,0-4.58,14.1H8.43c4,4,4,7.36,0,11.39h.05a8.28,8.28,0,0,0,4.58,14.1l0,0c5.63.89,7.58,3.59,6.7,9.21l0,0a8.27,8.27,0,0,0,12,8.71l0,0c5.07-2.59,8.25-1.55,10.83,3.52l0,0a8.28,8.28,0,0,0,14.82,0l0,0c2.59-5.07,5.76-6.11,10.83-3.52l0,0a8.27,8.27,0,0,0,12-8.71l0,0c-.89-5.63,1.07-8.32,6.7-9.21l0,0a8.28,8.28,0,0,0,4.58-14.1h.05Z"/></g><g id="Check"><polyline class="cls-2" points="34.37 50 44.79 62.49 65.62 37.5"/></g></svg>