<svg id="Layer_1" data-name="Layer 1" xmlns="http://www.w3.org/2000/svg" viewBox="0 0 30 30"><title>Artboard 1</title><path d="M15,3.52c3.74,0,4.18,0,5.66.08a7.75,7.75,0,0,1,2.6.49,4.56,4.56,0,0,1,2.65,2.65,7.75,7.75,0,0,1,.49,2.6c.06,1.48.08,1.92.08,5.66s0,4.18-.08,5.66a7.75,7.75,0,0,1-.49,2.6,4.56,4.56,0,0,1-2.65,2.65,7.75,7.75,0,0,1-2.6.49c-1.48.06-1.92.08-5.66.08s-4.18,0-5.66-.08a7.75,7.75,0,0,1-2.6-.49,4.56,4.56,0,0,1-2.65-2.65,7.75,7.75,0,0,1-.49-2.6c-.06-1.48-.08-1.92-.08-5.66s0-4.18.08-5.66a7.75,7.75,0,0,1,.49-2.6A4.56,4.56,0,0,1,6.74,4.09a7.75,7.75,0,0,1,2.6-.49c1.48-.06,1.92-.08,5.66-.08M15,1c-3.8,0-4.28,0-5.77.08a10.5,10.5,0,0,0-3.4.65A6.91,6.91,0,0,0,3.35,3.35,6.91,6.91,0,0,0,1.73,5.83a10.5,10.5,0,0,0-.65,3.4C1,10.72,1,11.2,1,15s0,4.28.08,5.77a10.5,10.5,0,0,0,.65,3.4,6.91,6.91,0,0,0,1.62,2.48,6.91,6.91,0,0,0,2.48,1.62,10.5,10.5,0,0,0,3.4.65c1.49.06,2,.08,5.77.08s4.28,0,5.77-.08a10.5,10.5,0,0,0,3.4-.65,7.21,7.21,0,0,0,4.1-4.1,10.5,10.5,0,0,0,.65-3.4C29,19.28,29,18.8,29,15s0-4.28-.08-5.77a10.5,10.5,0,0,0-.65-3.4,6.91,6.91,0,0,0-1.62-2.48,6.91,6.91,0,0,0-2.48-1.62,10.5,10.5,0,0,0-3.4-.65C19.28,1,18.8,1,15,1Z"/><path d="M15,7.81A7.19,7.19,0,1,0,22.19,15,7.19,7.19,0,0,0,15,7.81Zm0,11.86A4.67,4.67,0,1,1,19.67,15,4.67,4.67,0,0,1,15,19.67Z"/><circle cx="22.47" cy="7.53" r="1.68"/></svg>