<svg id="Layer_1" data-name="Layer 1" xmlns="http://www.w3.org/2000/svg" viewBox="0 0 30 30"><title>Internet-Icon</title><path d="M15,1A14,14,0,1,0,29,15,14,14,0,0,0,15,1Zm-.64,1.33V9h-5a15.88,15.88,0,0,1,1.19-3.11C11.63,3.84,13,2.61,14.36,2.33Zm1.28,0c1.41.28,2.73,1.51,3.77,3.51A15.88,15.88,0,0,1,20.6,9h-5Zm-4.54.55A10.66,10.66,0,0,0,9.45,5.26,17.58,17.58,0,0,0,8.08,9H3.79A12.8,12.8,0,0,1,11.1,2.88Zm7.8,0A12.8,12.8,0,0,1,26.21,9H21.92a17.58,17.58,0,0,0-1.37-3.69A10.66,10.66,0,0,0,18.9,2.88ZM3.2,10.23H7.8a25.76,25.76,0,0,0-.43,4.13H2.29A12.61,12.61,0,0,1,3.2,10.23Zm5.9,0h5.26v4.13H8.65A23.32,23.32,0,0,1,9.1,10.23Zm6.54,0H20.9a23.32,23.32,0,0,1,.45,4.13H15.64Zm6.56,0h4.6a12.61,12.61,0,0,1,.91,4.13H22.63A25.76,25.76,0,0,0,22.2,10.23ZM2.29,15.64H7.37a25.76,25.76,0,0,0,.43,4.13H3.2A12.61,12.61,0,0,1,2.29,15.64Zm6.36,0h5.71v4.13H9.1A23.32,23.32,0,0,1,8.65,15.64Zm7,0h5.71a23.32,23.32,0,0,1-.45,4.13H15.64Zm7,0h5.08a12.61,12.61,0,0,1-.91,4.13H22.2A25.76,25.76,0,0,0,22.63,15.64ZM3.79,21.05h4.3a17.48,17.48,0,0,0,1.36,3.68,10.76,10.76,0,0,0,1.66,2.39,12.78,12.78,0,0,1-7.32-6.07Zm5.61,0h5v6.62c-1.41-.29-2.73-1.52-3.77-3.52A16,16,0,0,1,9.4,21.05Zm6.24,0h5a16,16,0,0,1-1.19,3.1c-1,2-2.36,3.23-3.77,3.52Zm6.27,0h4.3a12.78,12.78,0,0,1-7.32,6.07,10.76,10.76,0,0,0,1.66-2.39,17.48,17.48,0,0,0,1.36-3.68Z"/></svg>