<?xml version="1.0" encoding="utf-8"?>
<!-- Generator: Adobe Illustrator 21.1.0, SVG Export Plug-In . SVG Version: 6.00 Build 0)  -->
<svg version="1.1" id="Layer_1" xmlns="http://www.w3.org/2000/svg" xmlns:xlink="http://www.w3.org/1999/xlink" x="0px" y="0px"
	 viewBox="0 0 200 200" style="enable-background:new 0 0 200 200;" xml:space="preserve">
<style type="text/css">
	.st0{fill:#FFFFFF;}
</style>
<title>Logo</title>
<path class="st0" d="M161.9,135c12,0,14.6,2,15.1,2.5l-4.5,49.1c-0.9,1.5-6.7,2.2-10.6,2.3s-9.8-0.8-10.6-2.3l-4.5-49.1
	C147.3,137,149.9,135,161.9,135 M161.9,133.8c-11.5,0-14.9,1.8-16,2.8l-0.4,0.4v0.6l4.5,49.1v0.3l0.1,0.2c1.6,2.7,10.6,2.9,11.6,2.9
	s10.1-0.2,11.7-2.9l0.1-0.2v-0.3l4.5-49.1V137l-0.4-0.4c-1-1.1-4.5-2.8-16-2.8H161.9z"/>
<path class="st0" d="M161.9,140.9c-2.4,0-13.2,1.1-13.2,1.1l3.8,41.3c1,2.3,9.5,2.4,9.5,2.4s8.5-0.1,9.5-2.4l3.8-41.3
	C175.1,141.9,174.3,140.9,161.9,140.9L161.9,140.9z"/>
<rect x="10" y="10" class="st0" width="56.2" height="56.2"/>
<rect x="10" y="71.9" class="st0" width="56.2" height="56.3"/>
<rect x="10" y="133.8" class="st0" width="56.2" height="56.2"/>
<rect x="71.9" y="10" class="st0" width="56.3" height="56.2"/>
<rect x="71.9" y="71.9" class="st0" width="56.3" height="56.3"/>
<rect x="71.9" y="133.8" class="st0" width="56.3" height="56.2"/>
<rect x="133.8" y="10" class="st0" width="56.2" height="56.2"/>
<rect x="133.8" y="71.9" class="st0" width="56.2" height="56.3"/>
</svg>
