<svg id="Logo_FIXED" data-name="Logo FIXED" xmlns="http://www.w3.org/2000/svg" viewBox="0 0 30 30"><defs><style>.cls-1{fill:none;}.cls-2{fill:#1da1f2;}</style></defs><title>Artboard 1</title><rect class="cls-1" width="400" height="400"/><path class="cls-2" d="M9.81,26.38c10.56,0,16.34-8.76,16.34-16.35,0-.25,0-.5,0-.74a11.62,11.62,0,0,0,2.87-3,11.48,11.48,0,0,1-3.3.91A5.79,5.79,0,0,0,28.23,4a11.75,11.75,0,0,1-3.65,1.4,5.75,5.75,0,0,0-9.79,5.23A16.3,16.3,0,0,1,3,4.67a5.74,5.74,0,0,0,1.78,7.67,5.68,5.68,0,0,1-2.61-.72v.07a5.76,5.76,0,0,0,4.61,5.64,5.71,5.71,0,0,1-2.6.09,5.75,5.75,0,0,0,5.37,4,11.54,11.54,0,0,1-7.13,2.47A12.44,12.44,0,0,1,1,23.8a16.26,16.26,0,0,0,8.81,2.57"/></svg>